
<svg width="139" height="22" viewBox="0 0 139 22" fill="none" xmlns="http://www.w3.org/2000/svg">
    <path d="M13.826 12.054V21H9.626V13.23C9.626 12.7913 9.51867 12.3947 9.304 12.04C9.08933 11.676 8.80467 11.3913 8.45 11.186C8.09533 10.9713 7.69867 10.864 7.26 10.864C6.82133 10.864 6.42 10.9713 6.056 11.186C5.70133 11.3913 5.41667 11.676 5.202 12.04C4.99667 12.3947 4.894 12.7913 4.894 13.23V21H0.694L0.68 7H4.88L4.894 7.882C5.36067 7.48067 5.89267 7.168 6.49 6.944C7.08733 6.72 7.71733 6.608 8.38 6.608C9.388 6.608 10.3027 6.85533 11.124 7.35C11.9453 7.83533 12.5987 8.48867 13.084 9.31C13.5787 10.1313 13.826 11.046 13.826 12.054ZM15.0614 15.918V7H19.2614V14.742C19.2614 15.1807 19.3687 15.582 19.5834 15.946C19.7981 16.3007 20.0827 16.5853 20.4374 16.8C20.8014 17.0053 21.1981 17.108 21.6274 17.108C22.0661 17.108 22.4627 17.0053 22.8174 16.8C23.1814 16.5853 23.4661 16.3007 23.6714 15.946C23.8861 15.582 23.9934 15.1807 23.9934 14.742V7H28.1934L28.2074 21H24.0074L23.9934 20.09C23.5267 20.4913 22.9947 20.804 22.3974 21.028C21.8001 21.252 21.1701 21.364 20.5074 21.364C19.5087 21.364 18.5941 21.1213 17.7634 20.636C16.9421 20.1413 16.2841 19.4833 15.7894 18.662C15.3041 17.8407 15.0614 16.926 15.0614 15.918ZM30.0299 21L30.0159 7H34.2159L34.2299 7.882C34.6966 7.48067 35.2286 7.168 35.8259 6.944C36.4233 6.72 37.0533 6.608 37.7159 6.608C38.2199 6.608 38.7333 6.68267 39.2559 6.832L37.6039 11.088C37.2773 10.9387 36.9413 10.864 36.5959 10.864C36.1573 10.864 35.7559 10.9713 35.3919 11.186C35.0373 11.3913 34.7526 11.676 34.5379 12.04C34.3326 12.3947 34.2299 12.7913 34.2299 13.23V21H30.0299ZM39.6527 7H43.8527V21H39.6527V7ZM41.7807 5.544C41.174 5.544 40.6653 5.34333 40.2547 4.942C39.844 4.54067 39.6387 4.04133 39.6387 3.444C39.6387 2.856 39.844 2.36133 40.2547 1.96C40.6653 1.54933 41.1693 1.344 41.7667 1.344C42.3547 1.344 42.8493 1.54933 43.2507 1.96C43.6613 2.36133 43.8667 2.856 43.8667 3.444C43.8667 4.04133 43.666 4.54067 43.2647 4.942C42.8727 5.34333 42.378 5.544 41.7807 5.544ZM49.9308 21.252C49.2214 21.1867 48.5401 21.0327 47.8868 20.79C47.2334 20.5473 46.6501 20.216 46.1368 19.796C45.6234 19.376 45.2174 18.8627 44.9188 18.256L48.4468 16.744C48.5401 16.8467 48.6708 16.9773 48.8388 17.136C49.0068 17.2853 49.2168 17.4207 49.4688 17.542C49.7301 17.6633 50.0428 17.724 50.4068 17.724C50.6494 17.724 50.8828 17.7007 51.1068 17.654C51.3401 17.598 51.5268 17.5047 51.6668 17.374C51.8161 17.2433 51.8908 17.0613 51.8908 16.828C51.8908 16.5667 51.7928 16.3707 51.5968 16.24C51.4101 16.1 51.1814 16.002 50.9108 15.946C50.6401 15.8807 50.3881 15.8293 50.1548 15.792C49.3241 15.6613 48.5261 15.4 47.7608 15.008C47.0048 14.6067 46.3841 14.0887 45.8988 13.454C45.4134 12.81 45.1708 12.0587 45.1708 11.2C45.1708 10.2387 45.4181 9.408 45.9128 8.708C46.4074 8.008 47.0514 7.47133 47.8448 7.098C48.6474 6.71533 49.5108 6.524 50.4348 6.524C51.5268 6.524 52.5348 6.748 53.4588 7.196C54.3921 7.644 55.1574 8.288 55.7548 9.128L52.4507 11.088C52.3388 10.948 52.1988 10.808 52.0308 10.668C51.8721 10.5187 51.6854 10.3927 51.4708 10.29C51.2654 10.178 51.0414 10.108 50.7988 10.08C50.4721 10.052 50.1781 10.066 49.9168 10.122C49.6648 10.1687 49.4641 10.2713 49.3148 10.43C49.1654 10.5793 49.0908 10.7987 49.0908 11.088C49.0908 11.3587 49.2214 11.5547 49.4828 11.676C49.7441 11.7973 50.0381 11.886 50.3648 11.942C50.6914 11.998 50.9574 12.0587 51.1628 12.124C51.9654 12.3853 52.7214 12.726 53.4308 13.146C54.1401 13.566 54.7094 14.0747 55.1388 14.672C55.5774 15.2693 55.7828 15.9693 55.7548 16.772C55.7548 17.7053 55.4748 18.5267 54.9148 19.236C54.3548 19.9453 53.6314 20.482 52.7448 20.846C51.8581 21.21 50.9201 21.3453 49.9308 21.252ZM58.4973 21.364C57.9093 21.364 57.41 21.1633 56.9993 20.762C56.598 20.3513 56.3973 19.852 56.3973 19.264C56.3973 18.6853 56.598 18.1907 56.9993 17.78C57.41 17.3693 57.9093 17.164 58.4973 17.164C59.076 17.164 59.5707 17.3693 59.9813 17.78C60.392 18.1907 60.5973 18.6853 60.5973 19.264C60.5973 19.852 60.392 20.3513 59.9813 20.762C59.5707 21.1633 59.076 21.364 58.4973 21.364ZM67.2273 21.266C66.4713 21.238 65.734 21.098 65.0153 20.846C64.306 20.5847 63.6807 20.2347 63.1393 19.796C62.6073 19.348 62.22 18.8347 61.9773 18.256L63.9933 17.388C64.1333 17.7053 64.3853 18.004 64.7493 18.284C65.1133 18.564 65.5333 18.788 66.0093 18.956C66.4853 19.124 66.966 19.208 67.4513 19.208C67.9647 19.208 68.4453 19.1287 68.8933 18.97C69.3413 18.8113 69.7053 18.578 69.9853 18.27C70.2747 17.9527 70.4193 17.5747 70.4193 17.136C70.4193 16.6693 70.2607 16.3053 69.9433 16.044C69.6353 15.7733 69.2433 15.5633 68.7673 15.414C68.3007 15.2553 67.8247 15.106 67.3393 14.966C66.378 14.7233 65.5193 14.434 64.7633 14.098C64.0073 13.7527 63.41 13.3187 62.9713 12.796C62.542 12.264 62.3273 11.5873 62.3273 10.766C62.3273 9.898 62.5653 9.14667 63.0413 8.512C63.5267 7.87733 64.1613 7.38733 64.9453 7.042C65.7293 6.69667 66.5693 6.524 67.4653 6.524C68.5947 6.524 69.626 6.76667 70.5593 7.252C71.4927 7.73733 72.188 8.39533 72.6453 9.226L70.7553 10.332C70.5967 9.996 70.354 9.702 70.0273 9.45C69.7007 9.18867 69.3273 8.98333 68.9073 8.834C68.4873 8.68467 68.058 8.60533 67.6193 8.596C67.078 8.57733 66.5693 8.64733 66.0933 8.806C65.6267 8.96467 65.2487 9.20733 64.9593 9.534C64.6793 9.85133 64.5393 10.248 64.5393 10.724C64.5393 11.1907 64.6887 11.5453 64.9873 11.788C65.2953 12.0307 65.692 12.2267 66.1773 12.376C66.672 12.516 67.2087 12.6793 67.7873 12.866C68.6367 13.1367 69.43 13.4493 70.1673 13.804C70.9047 14.1587 71.4973 14.602 71.9453 15.134C72.4027 15.666 72.6267 16.324 72.6173 17.108C72.6173 17.9667 72.3607 18.718 71.8473 19.362C71.334 19.9967 70.6667 20.482 69.8453 20.818C69.0333 21.154 68.1607 21.3033 67.2273 21.266ZM86.3919 12.292V21H84.0399V12.81C84.0399 12.1007 83.8673 11.4567 83.5219 10.878C83.1766 10.2993 82.7146 9.842 82.1359 9.506C81.5573 9.16067 80.9133 8.988 80.2039 8.988C79.5039 8.988 78.8599 9.16067 78.2719 9.506C77.6933 9.842 77.2313 10.2993 76.8859 10.878C76.5406 11.4567 76.3679 12.1007 76.3679 12.81V21H74.0159V-1.66893e-06H76.3679V8.75C76.8626 8.09667 77.4879 7.57867 78.2439 7.196C78.9999 6.804 79.8213 6.608 80.7079 6.608C81.7533 6.608 82.7053 6.86467 83.5639 7.378C84.4319 7.882 85.1179 8.56333 85.6219 9.422C86.1353 10.2807 86.3919 11.2373 86.3919 12.292ZM94.0783 21.364C92.7903 21.364 91.6143 21.0327 90.5503 20.37C89.4956 19.7073 88.6509 18.8207 88.0163 17.71C87.3909 16.59 87.0783 15.3533 87.0783 14C87.0783 12.9733 87.2603 12.0167 87.6243 11.13C87.9883 10.234 88.4876 9.45 89.1223 8.778C89.7663 8.09667 90.5129 7.56467 91.3623 7.182C92.2116 6.79933 93.1169 6.608 94.0783 6.608C95.1329 6.608 96.0989 6.82267 96.9763 7.252C97.8629 7.672 98.6189 8.26 99.2443 9.016C99.8789 9.772 100.35 10.6493 100.658 11.648C100.976 12.6467 101.092 13.7153 101.008 14.854H89.5843C89.6963 15.6473 89.9576 16.3567 90.3683 16.982C90.7789 17.598 91.3016 18.088 91.9363 18.452C92.5803 18.816 93.2943 19.0027 94.0783 19.012C94.9183 19.012 95.6789 18.7973 96.3603 18.368C97.0416 17.9293 97.5923 17.332 98.0123 16.576L100.406 17.136C99.8463 18.3773 99.0016 19.3947 97.8723 20.188C96.7429 20.972 95.4783 21.364 94.0783 21.364ZM89.5143 13.006H98.6423C98.5676 12.222 98.3156 11.508 97.8863 10.864C97.4569 10.2107 96.9109 9.688 96.2483 9.296C95.5856 8.904 94.8623 8.708 94.0783 8.708C93.2943 8.708 92.5756 8.89933 91.9223 9.282C91.2689 9.66467 90.7276 10.1827 90.2983 10.836C89.8783 11.48 89.6169 12.2033 89.5143 13.006ZM102.231 21V-1.66893e-06H104.583V21H102.231ZM114.198 9.352H111.02L111.006 21H108.654L108.668 9.352H106.26V7H108.668L108.654 2.604H111.006L111.02 7H114.198V9.352ZM121.512 21.364C120.224 21.364 119.048 21.0327 117.984 20.37C116.929 19.7073 116.085 18.8207 115.45 17.71C114.825 16.59 114.512 15.3533 114.512 14C114.512 12.9733 114.694 12.0167 115.058 11.13C115.422 10.234 115.921 9.45 116.556 8.778C117.2 8.09667 117.947 7.56467 118.796 7.182C119.645 6.79933 120.551 6.608 121.512 6.608C122.567 6.608 123.533 6.82267 124.41 7.252C125.297 7.672 126.053 8.26 126.678 9.016C127.313 9.772 127.784 10.6493 128.092 11.648C128.409 12.6467 128.526 13.7153 128.442 14.854H117.018C117.13 15.6473 117.391 16.3567 117.802 16.982C118.213 17.598 118.735 18.088 119.37 18.452C120.014 18.816 120.728 19.0027 121.512 19.012C122.352 19.012 123.113 18.7973 123.794 18.368C124.475 17.9293 125.026 17.332 125.446 16.576L127.84 17.136C127.28 18.3773 126.435 19.3947 125.306 20.188C124.177 20.972 122.912 21.364 121.512 21.364ZM116.948 13.006H126.076C126.001 12.222 125.749 11.508 125.32 10.864C124.891 10.2107 124.345 9.688 123.682 9.296C123.019 8.904 122.296 8.708 121.512 8.708C120.728 8.708 120.009 8.89933 119.356 9.282C118.703 9.66467 118.161 10.1827 117.732 10.836C117.312 11.48 117.051 12.2033 116.948 13.006ZM129.801 21V7H132.153V8.75C132.648 8.09667 133.273 7.57867 134.029 7.196C134.785 6.804 135.606 6.608 136.493 6.608C137.034 6.608 137.557 6.678 138.061 6.818L137.109 9.17C136.726 9.04867 136.353 8.988 135.989 8.988C135.289 8.988 134.645 9.16067 134.057 9.506C133.478 9.842 133.016 10.2993 132.671 10.878C132.326 11.4567 132.153 12.1007 132.153 12.81V21H129.801Z" fill="#18191D"/>
</svg>
